<?xml version="1.0" standalone="no"?><!DOCTYPE svg PUBLIC "-//W3C//DTD SVG 1.1//EN" "http://www.w3.org/Graphics/SVG/1.1/DTD/svg11.dtd"><svg t="1535529189049" class="icon" style="" viewBox="0 0 2336 1024" version="1.1" xmlns="http://www.w3.org/2000/svg" p-id="4020" xmlns:xlink="http://www.w3.org/1999/xlink" width="292" height="128"><defs><style type="text/css"></style></defs><path d="M476.5184 358.2976l4.82816-5.25824 4.97152-5.11488 5.12-5.11488 5.25824-4.97664 5.25824-4.82816 11.0848-9.09312 5.6832-4.4032 5.82656-4.26496 5.96992-3.97824 6.11328-3.97824 6.11328-3.84 6.25152-3.55328 6.4-3.40992 6.4-3.26656 6.67648-3.1232 6.53312-2.98496 6.82496-2.8416 6.82496-2.56 6.96832-2.42176 6.9632-2.26816 7.10656-2.12992 7.10656-1.84832 7.24992-1.70496 7.24992-1.5616 7.38816-1.28 7.53664-1.13664 7.38816-0.99328 7.67488-0.70656 7.53152-0.56832 7.68-0.28672h15.488l7.67488 0.28672 7.68 0.56832 7.53152 0.70656 7.53152 0.99328 7.39328 1.13664 7.39328 1.28 7.24992 1.5616 7.24992 1.70496 7.10656 1.84832 7.10656 2.12992 6.9632 2.26816 6.96832 2.42176 6.82496 2.56 6.81984 2.8416 6.53824 2.98496 6.67648 3.1232 6.4 3.26656 6.39488 3.40992 6.25152 3.55328 6.11328 3.84 6.10816 3.97824 5.96992 3.97824 5.82656 4.26496 5.6832 4.4032 11.0848 9.09312 5.25824 4.82816 5.25824 4.97664 5.11488 5.11488 4.97664 5.11488 4.83328 5.25824h97.92l-5.96992-9.51808-6.25664-9.37984-6.53312-9.23648-6.9632-8.95488-7.10656-8.81152-7.39328-8.38656-7.67488-8.38656-7.81312-7.95648-8.23808-7.81312-8.39168-7.53152-8.66304-7.2448-8.81664-6.96832-9.09824-6.67648-9.37984-6.39488-9.51808-6.11328-9.66144-5.82656-9.94816-5.54496-10.09152-5.25824-10.37312-4.82816-10.37312-4.55168-10.66496-4.26496-10.79808-3.97824-11.0848-3.54816-11.0848-3.12832-11.23328-2.98496-11.50976-2.41664-11.50976-2.12992-11.65824-1.84832-11.79136-1.28-11.93472-0.9984-11.93984-0.70656-12.07808-0.14336-12.22144 0.14336-11.93472 0.70656-11.93472 0.9984-11.79648 1.28-11.65312 1.84832-11.50976 2.12992-11.51488 2.41664-11.22816 2.98496-11.0848 3.12832-10.94144 3.54816-10.94144 3.97824-10.51648 4.26496-10.51648 4.55168-10.37312 4.82816-10.09152 5.25824-9.94816 5.54496-9.66144 5.82656-9.5232 6.11328-9.37984 6.39488-9.09824 6.67648-8.81152 6.96832-8.66816 7.2448-8.39168 7.53152-8.09984 7.81312-7.95648 7.95648-7.67488 8.38656-7.38816 8.38656-7.10656 8.81152-6.9632 8.95488-6.53824 9.23648-6.25152 9.37984-5.96992 9.51808H476.5696h-0.0512z m268.31872 353.2544h-2.56l-2.56-0.13824-2.41152-0.13824-4.82816-0.85504-2.27328-0.70656-2.12992-0.85504-1.98656-1.13664-1.98656-1.41824-0.85504-0.71168-0.70656-0.99328-0.85504-0.85504-0.70656-0.99328-0.56832-1.13664-0.70656-1.28-0.56832-1.28-0.42496-1.28-0.42496-1.5616-0.28672-1.5616-0.28672-1.70496-0.13824-1.70496-0.14336-1.84832-0.13824-1.99168h-0.13824V483.49696h68.92544V409.6h-68.92544V296.77568l-84.70528 37.80096V409.6h-68.92544v73.89696h68.92544v230.48192h0.14336l0.13824 2.41152 0.28672 2.56 0.28672 2.69824 0.42496 2.56 0.42496 2.69824 1.42336 5.4016 0.85504 2.69824 0.85504 2.56 2.26816 5.4016 2.8416 5.11488 3.40992 4.82816 1.98656 2.41664 2.12992 2.26816 2.26816 2.26816 2.41664 2.12992 2.69824 1.98656 2.8416 1.84832 2.98496 1.84832 3.26656 1.5616 3.41504 1.5616 3.54816 1.28 3.84 1.28 4.12672 0.99328 4.26496 0.85504 4.55168 0.70656 4.82816 0.56832 4.97664 0.28672 5.25824 0.13824 30.55616 0.42496h8.81152l4.12672-0.13824 3.97312-0.28672 3.69152-0.28672 3.69152-0.56832 3.40992-0.5632 3.41504-0.99328 3.1232-0.9984 3.1232-1.28 2.8416-1.5616 2.8416-1.70496 2.56-2.1248 2.56-2.27328 2.41152-2.69824 2.27328-2.98496 2.12992-3.40992 2.12992-3.69152 1.84832-4.27008 1.98656-4.54656 1.70496-4.97664 1.70496-5.4016 1.5616-5.82144 1.5616-6.39488 1.42336-6.9632 1.28-7.38816-27.00288-12.6464-0.99328 0.85504-2.41664 1.98656-3.84 2.98496-4.69504 3.27168-5.39648 3.40992-2.8416 1.5616-2.8416 1.28-2.98496 1.13152-2.69824 0.9984-2.8416 0.5632-1.28 0.14336h-1.28z m108.71808 65.21856h84.70528V411.58656H853.5552v365.184z m-421.80608 0h84.70528V411.58656H431.74912v365.184zM253.81888 480.3584l6.67648 0.28672 3.41504 0.28672 3.26656 0.28672 3.26656 0.42496 3.26656 0.56832 3.26656 0.70656 6.25152 1.42336 6.25152 1.98656 2.98496 0.99328 5.96992 2.56 2.8416 1.28 5.6832 2.8416 2.69824 1.70496 2.8416 1.5616 2.56 1.70496 2.69824 1.84832 2.41664 1.84832 2.56 1.98656 2.41152 1.98656 2.41664 2.12992 4.54656 4.26496 2.12992 2.26816 2.12992 2.41664 2.12992 2.26816 1.98656 2.56 1.84832 2.41664 61.96224-54.7072-3.40992-3.97312-7.10656-7.95648-7.38816-7.38816-3.97824-3.69152-7.95648-6.81984-4.26496-3.26656-4.26496-3.1232-4.26496-2.98496-4.55168-2.98496-4.4032-2.8416-9.37984-5.11488-4.69504-2.41664-4.82816-2.41152-4.97664-2.12992-4.97664-1.98656-4.97152-1.84832-5.12-1.84832-5.25824-1.5616-10.5216-2.8416-5.4016-1.13152-5.4016-0.9984-5.4016-0.85504-5.54496-0.70656-5.54496-0.56832-5.54496-0.42496-5.6832-0.28672-5.6832-0.14336-9.94816 0.28672-9.8048 0.70656-9.66144 1.28-9.37984 1.70496-9.37984 2.12992-9.09824 2.56-8.95488 3.1232-8.81152 3.41504-8.52992 3.84-8.23808 4.26496-8.09984 4.68992-7.81312 4.97152-7.53152 5.39648-7.39328 5.6832-6.9632 6.10816-6.6816 6.25152-6.4 6.81984-5.96992 6.9632-5.82656 7.24992-5.25824 7.53152-5.12 7.81312-4.55168 8.09984-4.26496 8.23808-3.84 8.52992-3.54816 8.81152-2.98496 8.94976-2.56 9.09312-2.12992 9.37472-1.70496 9.51808-1.28 9.66144-0.70656 9.66144-0.28672 9.94304 0.28672 9.94816 0.70656 9.80992 1.28 9.66144 1.70496 9.3696 2.12992 9.37984 2.56 9.088 2.98496 8.94976 3.54816 8.81152 3.84 8.52992 4.26496 8.23808 4.55168 8.09984 5.12 7.808 5.25824 7.53152 5.82656 7.38816 5.96992 6.9632 6.4 6.67648 6.6816 6.39488 6.9632 5.9648 7.39328 5.83168 7.53152 5.25312 7.81312 5.11488 8.09984 4.55168 8.23808 4.25984 8.52992 3.84 8.81152 3.54816 8.95488 2.99008 9.09824 2.56 9.37984 2.1248 9.37984 1.70496 9.66144 1.28 9.8048 0.71168 9.94816 0.28672h5.4016l5.4016-0.28672 5.4016-0.43008 5.25824-0.41984 5.25824-0.71168 5.25824-0.84992 5.12-0.85504 10.23488-2.27328 9.94816-2.8416 4.83328-1.5616 4.97664-1.70496 4.68992-1.84832 4.83328-1.98656 4.55168-2.12992 4.68992-2.26816 4.4032-2.26816 4.55168-2.41664 4.4032-2.56 4.26496-2.69824 4.26496-2.84672 4.1216-2.8416 4.1216-2.97984 3.97824-3.12832 3.84-3.11808 3.84-3.27168 3.69152-3.40992 3.69152-3.54816 3.54816-3.54816 6.81984-7.38816-61.67552-54.7072-1.98656 2.27328-1.98656 2.1248-4.1216 4.12672-2.12992 1.84832-2.26816 1.98656-2.12992 1.84832-2.26816 1.8432-4.82816 3.41504-4.82816 3.1232-7.67488 4.26496-2.69824 1.28-8.09984 3.40992-5.6832 1.98656-2.8416 0.85504-2.8416 0.70656-2.98496 0.71168-8.94976 1.70496-2.98496 0.28672-3.1232 0.29184-2.98496 0.2816-3.1232 0.14336h-3.1232l-5.6832-0.14336-5.54496-0.41984-5.54496-0.71168-5.4016-0.99328-5.4016-1.13664-5.25824-1.5616-5.12-1.71008-4.97664-1.98656-4.83328-2.1248-4.82816-2.56-4.55168-2.56-4.55168-2.84672-4.26496-3.1232-4.26496-3.26656-3.97824-3.54816-3.84-3.54816-3.54816-3.84-3.54816-3.97312-3.26656-4.26496-2.98496-4.26496-2.98496-4.55168-2.56-4.55168-2.41664-4.68992-2.26816-4.97152-1.98656-4.97152-1.70496-5.11488-1.5616-5.25824-1.13152-5.25312-0.9984-5.55008-0.70656-5.4016-0.42496-5.67808-0.13824-5.67808 0.13824-5.6832 0.42496-5.54496 0.70656-5.55008 0.9984-5.4016 1.13152-5.39648 1.5616-5.25824 1.70496-5.11488 1.98656-4.97152 2.26816-4.82816 2.41664-4.82816 2.56-4.55168 2.98496-4.55168 2.98496-4.25984 3.26656-4.12672 3.54816-3.97312 3.54816-3.84 3.84-3.69152 3.97824-3.40992 4.26496-3.40992 4.26496-2.98496 4.55168-2.8416 4.55168-2.69824 4.82816-2.41152 4.83328-2.27328 4.97664-1.98656 5.12-1.70496 5.25824-1.42336 5.4016-1.28 5.4016-0.99328 5.54496-0.70656 5.54496-0.42496 5.68832-0.13312v-0.04608z m1900.40064 91.07968l167.83872-146.49856h-49.03424l-162.72384 138.5472V278.58432h-38.79424v483.69664h38.79424v-183.01952l175.66208 183.01952h49.03424l-180.77696-190.84288z m-668.38528 164.68992l-4.55168-0.28672-4.26496-0.28672-4.26496-0.42496-3.97312-0.70656-3.84-0.71168-3.84-0.84992-3.69152-0.85504-6.81984-2.27328-3.26656-1.41824-2.98496-1.41824-2.98496-1.5616-2.84672-1.71008-2.69824-1.84832-2.56-1.8432-2.41152-2.12992-2.26816-2.12992-2.12992-2.41664-1.99168-2.41152-1.84832-2.56-1.69984-2.56-1.56672-2.8416-1.5616-2.99008-1.28-2.97984-1.13664-3.12832-1.13152-3.40992-0.85504-3.40992-0.70656-3.40992-0.71168-3.69152-0.84992-7.67488-0.29184-4.12672v-4.82816l0.29184-4.55168 0.70656-4.55168 0.85504-4.39808 1.13152-4.1216 1.5616-4.12672 1.84832-3.84 2.12992-3.69664 2.26816-3.54816 2.8416-3.40992 2.99008-3.26656 3.26144-2.98496 3.69664-2.98496 3.84-2.69824 4.26496-2.69824 4.55168-2.41664 4.82816-2.26816 5.12-2.12992 5.4016-1.98656 5.82656-1.84832 5.96992-1.5616 6.4-1.5616 6.6816-1.28 6.9632-1.28 7.24992-0.99328 7.53152-0.85504 7.81312-0.70656 8.23808-0.56832 8.39168-0.42496 17.90464-0.28672 9.37472 0.13824h23.168l0.42496 8.66304 0.13824 8.38656v8.23808l-0.28672 7.81312-0.56832 7.67488-0.70656 7.2448-0.99328 7.10656-1.13664 6.81984-1.41824 6.528-1.71008 6.25152-1.8432 5.96992-1.99168 5.6832-2.26816 5.39648-2.56 5.25824-2.69824 4.82816-2.98496 4.68992-3.1232 4.26496-3.40992 4.12672-3.69664 3.84-3.84 3.54816-4.1216 3.26144-4.27008 2.99008-4.39808 2.69824-4.82816 2.56-4.97664 2.12992-5.12 1.98656-5.4016 1.5616-5.6832 1.42336-5.82656 1.13152-5.96992 0.85504-6.40512 0.5632-6.4 0.3072z m139.4176-49.72544v-159.43168l-0.28672-6.6816-0.42496-6.38976-0.71168-6.10816-0.99328-5.96992-1.13664-5.82656-1.41824-5.54496-1.5616-5.4016-1.84832-5.11488-1.98656-4.97152-2.27328-4.82816-2.56-4.55168-2.69824-4.4032-2.98496-4.1216-3.1232-3.84-3.40992-3.84-3.54816-3.54816-3.84-3.26656-3.97312-3.1232-4.26496-2.98496-4.55168-2.69824-4.68992-2.41152-4.97664-2.41664-5.12-1.98656-5.4016-1.98656-5.54496-1.70496-5.83168-1.42336-6.10816-1.28-6.25664-1.13152-6.53312-0.85504-6.6816-0.70656-6.9632-0.42496-7.10656-0.28672-13.21984 0.28672-12.50304 1.13664-5.96992 0.85504-5.6832 0.9984-5.67808 1.28-5.4016 1.28-5.25824 1.5616-9.94816 3.69152-4.69504 2.12992-4.4032 2.27328-4.39808 2.56-4.12672 2.56-3.97312 2.98496-3.69152 2.98496-3.70688 3.2512-3.41504 3.26656-3.26144 3.69152-2.99008 3.69152-2.8416 3.97824-2.69824 4.1216-2.56 4.4032-2.26816 4.4032-2.26816 4.68992-3.69152 9.94816-1.5616 5.25824-1.42336 5.4016-1.28 5.6832-0.99328 5.6832h41.216l0.5632-3.54816 0.71168-3.40992 1.70496-6.53312 2.27328-5.96992 2.8416-5.6832 1.5616-2.56 1.84832-2.56 1.84832-2.41152 1.98656-2.27328 2.1248-2.26816 2.12992-1.98656 2.41664-1.98656 2.56-1.84832 2.69824-1.84832 2.69824-1.5616 2.98496-1.5616 2.98496-1.42336 3.1232-1.28 3.40992-1.13152 3.40992-0.9984 3.54816-0.99328 3.69664-0.85504 3.84-0.70656 3.97312-0.70656 8.23808-0.85504 4.4032-0.28672 9.09312-0.28672H1515.52l8.5248 0.56832 7.95648 1.13664 3.69152 0.85504 3.69664 0.99328 3.40992 0.9984 3.40992 1.28 3.1232 1.41824 3.1232 1.5616 2.8416 1.70496 2.84672 1.84832 2.56 1.98656 2.56 2.12992 2.26816 2.27328 2.26816 2.41152 2.12992 2.56 1.84832 2.69824 1.8432 2.8416 1.56672 2.98496 1.5616 3.26656 1.28 3.26656 1.28 3.54816 1.13664 3.54816 0.84992 3.69152 0.85504 3.97824 0.5632 3.97824 0.56832 4.26496 0.42496 4.4032 0.13824 4.4032v31.40096h-38.656l-18.75968 0.85504-8.81664 0.5632-8.5248 0.56832-8.10496 0.70656-7.808 0.70656-7.38816 0.85504-7.11168 0.99328-6.83008 0.9984-6.4 1.13152-6.10816 1.13664-5.67808 1.28-5.40672 1.42336-5.11488 1.41824-4.69504 1.41824-4.4032 1.71008-3.97312 1.69984-3.83488 1.99168-7.38816 3.97824-3.41504 2.26816-3.40992 2.12992-3.26656 2.26816-3.1232 2.41152-2.98496 2.41664-5.6832 5.11488-2.56 2.69824-2.56 2.8416-2.41664 2.8416-2.26816 2.8416-2.12992 2.99008-2.12992 3.11808-3.69152 6.25664-1.70496 3.26656-1.5616 3.40992-1.42336 3.40992-1.28 3.54816-1.13152 3.54816-1.13664 3.69664-1.70496 7.67488-0.71168 3.84-0.5632 3.97312-0.5632 4.12672-0.56832 8.23808 0.42496 5.82144 0.70656 5.6832 0.71168 5.4016 1.13664 5.25312 1.13664 5.11488 1.41824 4.97664 1.5616 4.68992 1.84832 4.6848 1.99168 4.4032 2.1248 4.1216 2.41664 4.12672 2.56 3.84 2.8416 3.69152 2.98496 3.54816 3.1232 3.41504 3.40992 3.11808 3.54816 3.12832 3.84 2.8416 3.97824 2.56 4.1216 2.56 4.27008 2.26816 4.68992 2.26816 4.68992 1.84832 4.97152 1.84832 5.12 1.70496 5.4016 1.41824 5.4016 1.28 5.83168 1.13664 5.96992 0.84992 6.10816 0.85504 6.25664 0.5632 6.53312 0.43008 4.69504-0.43008 4.55168-0.41984 8.81664-1.14176 4.25984-0.70656 4.12672-0.70656 4.12672-0.85504 3.97824-0.85504 3.97312-0.98816 3.83488-0.9984 3.69664-1.13152 10.65472-3.84 3.26656-1.42336 6.53312-3.1232 3.1232-1.70496 2.98496-1.70496 2.8416-1.84832 2.8416-1.99168 2.69824-1.8432 2.69824-2.12992 2.56-2.12992 2.41664-2.1248 2.41664-2.27328 2.26816-2.41664 2.12992-2.41152 2.1248-2.56 1.99168-2.56 3.69152-5.4016 2.56-5.25824 2.69824 49.73056h41.22112l-1.13664-9.23136-0.85504-9.2416-0.70656-9.37984-0.42496-9.37472-0.29184-9.51808 0.14336-9.66144 0.28672-9.66656 0.4608-9.78432 0.01024 0.03072z m-436.15744 49.72544l-6.83008-0.28672-6.67648-0.5632-6.4-0.85504-6.25664-1.28-5.96992-1.41824-5.82656-1.70496-5.54496-1.99168-5.25824-2.26816-5.25824-2.56-4.83328-2.69824-4.68992-3.1232-4.55168-3.40992-4.26496-3.69664-4.1216-3.97312-3.84-4.26496-3.69152-4.55168-3.40992-4.68992-3.26656-5.10976-2.98496-5.4016-2.8416-5.55008-2.56-5.9648-2.41664-6.25664-2.12992-6.38976-1.98656-6.81984-1.84832-7.10144-1.41824-7.24992-1.42336-7.66976-1.13664-7.81312-0.85504-8.23808-0.70656-8.38656-0.42496-8.81664-0.28672-8.94976 0.42496-8.09472 0.5632-7.81312 0.85504-7.53664 0.99328-7.2448 1.13664-6.95808 1.41824-6.81984 1.5616-6.53312 1.70496-6.38976 1.98656-5.96992 2.12992-5.82656 2.41152-5.54496 2.41664-5.25824 2.69824-5.11488 2.98496-4.68992 3.1232-4.55168 3.26656-4.4032 3.42016-3.97312 3.69152-3.84 3.97824-3.54816 3.97824-3.26656 4.26496-2.98496 4.4032-2.8416 4.68992-2.56 4.83328-2.27328 4.97664-1.98656 5.25824-1.84832 5.4016-1.5616 5.54496-1.28 5.82656-0.99328 5.97504-0.85504 12.50304-0.85504 5.96992 0.42496 5.6832 0.42496 5.54496 0.85504 5.4016 0.99328 5.12 1.42336 4.97664 1.5616 4.82816 1.84832 4.68992 1.98656 4.4032 2.41152 4.4032 2.56 4.1216 2.8416 3.84 3.1232 3.84 3.26656 3.54816 3.69152 3.40992 3.84 3.26656 4.12672 2.98496 4.4032 2.98496 4.54656 2.69824 4.97152 2.56 5.11488 2.27328 5.39648 2.1248 5.6832 2.12992 5.82656 1.70496 6.25152 1.71008 6.39488 1.41824 6.67648 1.28 6.9632 1.13152 7.10144 0.9984 7.53152 0.70656 7.67488 0.5632 7.95648 0.43008 8.09984-0.43008 8.94976-0.5632 8.5248-0.70656 8.23808-0.85504 8.09984-1.13664 7.67488-1.13152 7.53152-1.42336 7.2448-1.5616 6.81984-1.84832 6.67648-1.8432 6.39488-2.12992 6.10816-2.12992 5.82656-2.41664 5.54496-2.56 5.25824-2.8416 4.97152-2.84672 4.68992-3.11808 4.4032-3.12832 4.25984-3.40992 3.84-3.54816 3.54816-3.84 3.40992-3.83488 2.99008-4.12672 2.8416-4.26496 2.56-4.4032 2.12992-4.55168 1.98656-4.68992 1.70496-4.97152 1.41824-4.97664 1.14176-5.25824 0.84992-5.40672 0.56832-5.54496 0.2816 0.04096 0.01024z m2.55488-319.0016l-4.82816 0.13824-9.37984 0.85504-4.55168 0.56832-4.4032 0.56832-4.4032 0.70656-4.4032 0.99328-4.26496 0.85504-8.23808 2.27328-3.97824 1.28-3.84 1.41824-7.67488 3.1232-3.54816 1.70496-3.69152 1.84832-3.41504 1.98656-3.54816 1.98656-3.26656 2.12992-3.26656 2.26816-3.26656 2.41664-2.98496 2.41152-3.1232 2.56-5.82656 5.54496-2.69824 2.8416-2.69824 2.98496-2.69824 3.1232-2.56 3.26656-2.41152 3.26656-2.41664 3.40992-2.26816 3.54816-2.56-2.56V278.55872h-38.79936v411.37152l-0.14336 3.83488-0.13824 4.26496-0.28672 4.68992-0.42496 5.11488-0.42496 5.54496-0.56832 5.96992-0.56832 6.25152v36.6592h41.35936v-49.73056l2.56-2.56 2.69824 3.54816 2.56 3.40992 5.6832 6.53312 5.6832 5.9648 3.1232 2.99008 2.98496 2.69824 3.1232 2.69824 9.8048 7.23968 3.41504 2.12992 3.54816 2.12992 7.10144 3.69152 3.69152 1.84832 3.69152 1.5616 3.84 1.56672 3.84 1.41824 3.97824 1.28 7.95648 2.27328 4.1216 0.84992 4.26496 0.84992 8.52992 1.42336 8.81664 0.85504 4.55168 0.28672 9.2416 0.28672 7.808-0.56832 7.53664-0.70656 7.39328-1.13664 7.10144-1.5616 6.83008-1.70496 6.6816-2.12992 6.4-2.41664 6.10816-2.69824 5.96992-3.11808 5.6832-3.41504 5.54496-3.69152 5.25824-3.97312 4.98176-4.4032 4.68992-4.55168 4.55168-5.11488 4.39808-5.25824 3.97824-5.67808 3.97312-5.96992 3.54816-6.25152 3.40992-6.528 3.1232-6.9632 2.98496-7.2448 2.69824-7.53152 2.41664-7.9616 2.12992-8.09984 1.98656-8.51968 1.84832-8.94976 1.5616-9.09312 1.28512-9.51808 0.98816-9.8048 0.85504-10.22976 0.5632-10.368-0.5632-10.5216-0.85504-10.09152-0.98816-9.79968-1.42336-9.51808-1.56672-9.2416-1.69984-8.81152-1.99168-8.5248-2.26816-8.23808-2.56-7.81312-2.69824-7.67488-2.98496-7.10656-3.26656-6.9632-3.40992-6.67648-3.69664-6.25152-3.97312-5.96992-4.12672-5.54496-4.4032-5.39648-4.55168-4.97152-4.97152-4.68992-5.12-4.26496-5.25824-4.1216-5.55008-3.69152-5.82144-3.40992-6.11328-2.98496-6.25664-2.69824-6.53824-2.56-6.82496-1.98656-6.9632-1.84832-7.24992-1.42336-7.53152-1.13664-7.68-0.85504-7.95648-0.44544-0.0256 0.01536z m668.38528 0h-4.55168l-4.4032 0.28672-8.5248 0.56832-4.26496 0.56832-3.97824 0.70656-4.1216 0.70656-3.97824 0.85504-3.84 0.9984-3.83488 1.13152-7.38816 2.56-3.54816 1.5616-3.41504 1.5616-3.40992 1.70496-3.40992 1.84832-3.26656 1.84832-6.25664 4.26496-3.1232 2.26816-2.98496 2.41664-2.8416 2.56-2.8416 2.69824-2.69824 2.69824-2.69824 2.8416-2.56 2.98496-2.56 3.1232-2.41664 3.26656-2.41664 3.40992-2.26816 3.40992-2.12992 3.54816-2.1248 3.69152v-2.56l-2.69824-49.73056h-41.22112l1.13664 6.81984 0.42496 3.69152 0.28672 3.84 0.56832 8.23808v4.26496l0.13824 4.54656v305.93024h41.35424V568.7296l0.29184-6.9632 0.5632-6.67648 1.70496-12.78976 1.13664-5.9648 1.13664-5.82656 1.41824-5.67808 1.5616-5.4016 1.71008-5.25824 1.98656-4.97152 1.99168-4.68992 2.26816-4.68992 2.41152-4.26496 2.56-4.1216 2.69824-3.97824 2.98496-3.69152 2.98496-3.40992 3.27168-3.26656 3.40992-3.1232 3.54816-2.8416 3.84-2.56 3.83488-2.41664 4.12672-2.26816 4.26496-1.98656 4.26496-1.70496 4.68992-1.5616 4.68992-1.41824 4.83328-1.13664 5.11488-0.85504 5.25824-0.70656 5.4016-0.56832 5.55008-0.28672 5.12 0.28672 4.97152 0.42496 4.69504 0.5632 4.68992 0.85504 4.39808 0.85504 4.26496 1.13152 4.27008 1.28 3.97312 1.42336 3.84 1.5616 3.69152 1.70496 3.40992 1.98656 3.41504 2.12992 3.26656 2.27328 2.98496 2.41152 2.98496 2.56 2.69824 2.8416 2.56 2.8416 2.41664 3.1232 2.26816 3.26656 2.12992 3.54816 1.98656 3.54816 1.84832 3.84 1.5616 3.97824 1.5616 4.1216 1.28 4.26496 1.13664 4.4032 1.13664 4.68992 0.84992 4.82816 0.71168 4.97152 0.5632 5.11488 0.28672 5.25824 0.29184 5.54496v216.98048h41.35424v-209.16736l-0.28672-8.23808-0.42496-7.95648-0.71168-7.66976-0.99328-7.38816-1.13664-7.24992-1.28-6.95808-1.5616-6.67648-1.84832-6.39488-1.98656-6.10816-2.26816-5.96992-2.41664-5.6832-2.69824-5.39648-2.8416-5.11488-3.1232-4.82816-3.27168-4.68992-3.54816-4.4032-3.69152-4.1216-3.97312-3.84-4.12672-3.54816-4.4032-3.40992-4.68992-3.1232-4.82816-2.8416-4.97664-2.56-5.25824-2.27328-5.55008-2.12992-5.67808-1.84832-5.83168-1.5616-6.10816-1.28-6.4-1.13664-6.53824-0.70656-6.82496-0.56832-6.98368-0.29696z" fill="#2F2267" p-id="4021"></path><path d="M476.5184 358.2976l4.82816-5.25824 4.97152-5.11488 5.12-5.11488 5.25824-4.97664 5.25824-4.82816 11.0848-9.09312 5.6832-4.4032 5.82656-4.26496 5.96992-3.97824 6.11328-3.97824 6.11328-3.84 6.25152-3.55328 6.4-3.40992 6.4-3.26656 6.67648-3.1232 6.53312-2.98496 6.82496-2.8416 6.82496-2.56 6.96832-2.42176 6.9632-2.26816 7.10656-2.12992 7.10656-1.84832 7.24992-1.70496 7.24992-1.5616 7.38816-1.28 7.53664-1.13664 7.38816-0.99328 7.67488-0.70656 7.53152-0.56832 7.68-0.28672h15.488l7.67488 0.28672 7.68 0.56832 7.53152 0.70656 7.53152 0.99328 7.39328 1.13664 7.39328 1.28 7.24992 1.5616 7.24992 1.70496 7.10656 1.84832 7.10656 2.12992 6.9632 2.26816 6.96832 2.42176 6.82496 2.56 6.81984 2.8416 6.53824 2.98496 6.67648 3.1232 6.4 3.26656 6.39488 3.40992 6.25152 3.55328 6.11328 3.84 6.10816 3.97824 5.96992 3.97824 5.82656 4.26496 5.6832 4.4032 11.0848 9.09312 5.25824 4.82816 5.25824 4.97664 5.11488 5.11488 4.97664 5.11488 4.83328 5.25824h97.92l-5.96992-9.51808-6.25664-9.37984-6.53312-9.23648-6.9632-8.95488-7.10656-8.81152-7.39328-8.38656-7.67488-8.38656-7.81312-7.95648-8.23808-7.81312-8.39168-7.53152-8.66304-7.2448-8.81664-6.96832-9.09824-6.67648-9.37984-6.39488-9.51808-6.11328-9.66144-5.82656-9.94816-5.54496-10.09152-5.25824-10.37312-4.82816-10.37312-4.55168-10.66496-4.26496-10.79808-3.97824-11.0848-3.54816-11.0848-3.12832-11.23328-2.98496-11.50976-2.41664-11.50976-2.12992-11.65824-1.84832-11.79136-1.28-11.93472-0.9984-11.93984-0.70656-12.07808-0.14336-12.22144 0.14336-11.93472 0.70656-11.93472 0.9984-11.79648 1.28-11.65312 1.84832-11.50976 2.12992-11.51488 2.41664-11.22816 2.98496-11.0848 3.12832-10.94144 3.54816-10.94144 3.97824-10.51648 4.26496-10.51648 4.55168-10.37312 4.82816-10.09152 5.25824-9.94816 5.54496-9.66144 5.82656-9.5232 6.11328-9.37984 6.39488-9.09824 6.67648-8.81152 6.96832-8.66816 7.2448-8.39168 7.53152-8.09984 7.81312-7.95648 7.95648-7.67488 8.38656-7.38816 8.38656-7.10656 8.81152-6.9632 8.95488-6.53824 9.23648-6.25152 9.37984-5.96992 9.51808H476.5696h-0.0512z" fill="#D13433" p-id="4022"></path></svg>