<?xml version="1.0" standalone="no"?><!DOCTYPE svg PUBLIC "-//W3C//DTD SVG 1.1//EN" "http://www.w3.org/Graphics/SVG/1.1/DTD/svg11.dtd"><svg t="1535529516262" class="icon" style="" viewBox="0 0 2334 1024" version="1.1" xmlns="http://www.w3.org/2000/svg" p-id="4146" xmlns:xlink="http://www.w3.org/1999/xlink" width="291.75" height="128"><defs><style type="text/css"></style></defs><path d="M476.519 358.298l4.832-5.258 4.972-5.114 5.118-5.114 5.258-4.974 5.26-4.83 11.084-9.092 5.684-4.404 5.826-4.265 5.968-3.977 6.112-3.977 6.112-3.839 6.252-3.551 6.401-3.411 6.401-3.266 6.678-3.125 6.533-2.985 6.828-2.841 6.828-2.56 6.966-2.419 6.966-2.271 7.104-2.129 7.106-1.849 7.248-1.706 7.248-1.561 7.392-1.28 7.533-1.134 7.39-0.996 7.676-0.707 7.533-0.567 7.676-0.286h15.491l7.676 0.286 7.676 0.567 7.532 0.707 7.533 0.996 7.392 1.134 7.392 1.28 7.248 1.561 7.248 1.706 7.104 1.849 7.106 2.129 6.966 2.271 6.966 2.419 6.828 2.56 6.819 2.841 6.538 2.985 6.678 3.125 6.401 3.266 6.393 3.411 6.254 3.551 6.112 3.839 6.111 3.977 5.97 3.977 5.826 4.265 5.683 4.404 11.086 9.092 5.258 4.83 5.26 4.974 5.114 5.114 4.974 5.114 4.832 5.258h97.921l-5.97-9.521-6.254-9.377-6.533-9.235-6.966-8.953-7.106-8.812-7.392-8.387-7.676-8.389-7.814-7.955-8.241-7.814-8.389-7.532-8.667-7.246-8.814-6.966-9.097-6.676-9.377-6.393-9.522-6.112-9.662-5.825-9.948-5.546-10.09-5.258-10.375-4.832-10.375-4.549-10.662-4.265-10.8-3.977-11.084-3.55-11.084-3.129-11.231-2.985-11.509-2.414-11.509-2.129-11.658-1.849-11.793-1.28-11.935-0.996-11.939-0.707-12.077-0.141-12.222 0.141-11.935 0.707-11.935 0.996-11.799 1.28-11.655 1.849-11.509 2.129-11.514 2.414-11.226 2.985-11.084 3.129-10.941 3.55-10.943 3.977-10.517 4.265-10.517 4.549-10.375 4.832-10.09 5.258-9.948 5.546-9.664 5.825-9.522 6.112-9.377 6.393-9.097 6.676-8.814 6.966-8.667 7.246-8.389 7.532-8.101 7.814-7.958 7.955-7.673 8.389-7.392 8.387-7.106 8.812-6.966 8.953-6.538 9.235-6.252 9.377-5.97 9.521h97.921z" p-id="4147" fill="#ffffff"></path><path d="M744.836 711.549h-2.56l-2.56-0.141-2.414-0.141-4.83-0.853-2.271-0.707-2.129-0.853-1.987-1.134-1.987-1.422-0.853-0.707-0.707-0.996-0.853-0.853-0.707-0.996-0.567-1.134-0.707-1.28-0.567-1.28-0.426-1.28-0.426-1.561-0.286-1.561-0.286-1.706-0.141-1.706-0.141-1.849-0.141-1.987h-0.141V483.495h68.928v-73.894h-68.928V296.778l-84.703 37.801v75.026h-68.928v73.894h68.928v230.479h0.141l0.141 2.414 0.286 2.56 0.286 2.7 0.426 2.56 0.426 2.7 1.422 5.399 0.853 2.7 0.853 2.56 2.271 5.399 2.841 5.114 3.411 4.83 1.987 2.414 2.129 2.271 2.271 2.271 2.414 2.129 2.7 1.987 2.841 1.849 2.985 1.849 3.266 1.561 3.411 1.561 3.55 1.28 3.839 1.28 4.123 0.996 4.265 0.853 4.55 0.707 4.832 0.567 4.974 0.286 5.26 0.141 30.557 0.426h8.814l4.123-0.141 3.977-0.286 3.692-0.286 3.692-0.567 3.411-0.567 3.411-0.996 3.125-0.996 3.125-1.28 2.841-1.561 2.841-1.706 2.56-2.129 2.56-2.271 2.414-2.7 2.271-2.985 2.129-3.411 2.129-3.692 1.849-4.265 1.987-4.549 1.706-4.972 1.706-5.399 1.561-5.825 1.561-6.393 1.422-6.962 1.28-7.39-27.003-12.647-0.996 0.853-2.414 1.987-3.839 2.985-4.691 3.266-5.399 3.411-2.841 1.561-2.841 1.28-2.985 1.134-2.7 0.996-2.841 0.567-1.28 0.141h-1.262z m108.72 65.221h84.703V411.585h-84.703V776.77z m-421.805 0h84.703V411.585h-84.703V776.77zM253.817 480.357l6.676 0.286 3.411 0.286 3.266 0.286 3.266 0.426 3.266 0.567 3.266 0.707 6.252 1.422 6.252 1.987 2.985 0.996 5.968 2.56 2.841 1.28 5.683 2.841 2.7 1.706 2.841 1.561 2.56 1.706 2.7 1.849 2.414 1.849 2.56 1.987 2.414 1.987 2.414 2.129 4.549 4.265 2.129 2.271 2.129 2.414 2.129 2.271 1.987 2.56 1.849 2.414 61.964-54.704-3.411-3.977-7.104-7.955-7.39-7.39-3.977-3.692-7.955-6.819-4.265-3.266-4.265-3.125-4.265-2.985-4.55-2.985-4.404-2.841-9.38-5.114-4.691-2.414-4.832-2.414-4.974-2.129-4.974-1.987-4.974-1.849-5.118-1.849-5.26-1.561-10.518-2.841-5.401-1.134-5.401-0.996-5.401-0.853-5.547-0.707-5.547-0.567-5.547-0.426-5.684-0.286-5.684-0.141-9.948 0.286-9.807 0.707-9.662 1.28-9.377 1.706-9.377 2.129-9.097 2.56-8.953 3.125-8.814 3.411-8.528 3.839-8.241 4.265-8.101 4.689-7.814 4.972-7.533 5.399-7.392 5.683-6.966 6.111-6.678 6.252-6.401 6.819-5.97 6.962-5.826 7.246-5.26 7.532-5.118 7.813-4.55 8.099-4.265 8.24-3.839 8.526-3.55 8.812-2.985 8.95-2.56 9.092-2.129 9.376-1.706 9.521-1.28 9.66-0.707 9.66-0.286 9.948 0.286 9.947 0.707 9.807 1.28 9.66 1.706 9.376 2.129 9.376 2.56 9.092 2.985 8.95 3.55 8.812 3.839 8.526 4.265 8.24 4.55 8.099 5.118 7.813 5.26 7.532 5.826 7.39 5.97 6.962 6.401 6.676 6.678 6.393 6.966 5.968 7.392 5.825 7.533 5.258 7.814 5.114 8.101 4.549 8.241 4.265 8.528 3.839 8.814 3.55 8.953 2.985 9.097 2.56 9.377 2.129 9.377 1.706 9.662 1.28 9.807 0.707 9.948 0.286h5.401l5.401-0.286 5.401-0.426 5.26-0.426 5.26-0.707 5.26-0.853 5.118-0.853 10.236-2.271 9.95-2.841 4.832-1.561 4.974-1.706 4.691-1.849 4.832-1.987 4.55-2.129 4.691-2.271 4.404-2.271 4.55-2.414 4.404-2.56 4.265-2.7 4.265-2.841 4.123-2.841 4.123-2.985 3.977-3.125 3.839-3.125 3.839-3.266 3.692-3.411 3.692-3.55 3.55-3.55 6.819-7.39-61.679-54.704-1.987 2.271-1.987 2.129-4.123 4.123-2.129 1.849-2.271 1.987-2.129 1.849-2.271 1.849-4.83 3.411-4.83 3.125-7.673 4.265-2.7 1.28-8.099 3.411-5.683 1.987-2.841 0.853-2.841 0.707-2.985 0.707-8.95 1.706-2.985 0.286-3.125 0.286-2.985 0.286-3.125 0.141h-3.125l-5.684-0.141-5.547-0.426-5.547-0.707-5.401-0.996-5.401-1.134-5.26-1.561-5.118-1.706-4.974-1.987-4.832-2.129-4.832-2.56-4.55-2.56-4.55-2.841-4.265-3.125-4.265-3.266-3.977-3.55-3.839-3.55-3.55-3.839-3.55-3.977-3.266-4.265-2.985-4.265-2.985-4.549-2.56-4.549-2.414-4.689-2.271-4.972-1.987-4.972-1.706-5.114-1.561-5.258-1.134-5.258-0.996-5.546-0.707-5.399-0.426-5.683-0.141-5.683 0.141-5.683 0.426-5.546 0.707-5.546 0.996-5.399 1.134-5.399 1.561-5.258 1.706-5.114 1.987-4.972 2.271-4.83 2.414-4.83 2.56-4.549 2.985-4.549 2.985-4.265 3.266-4.123 3.55-3.977 3.55-3.839 3.839-3.692 3.977-3.411 4.265-3.411 4.265-2.985 4.55-2.841 4.55-2.7 4.832-2.414 4.832-2.271 4.974-1.987 5.118-1.706 5.26-1.422 5.401-1.28 5.401-0.996 5.547-0.707 5.547-0.426 5.686-0.132z m1900.402 91.086l167.841-146.502h-49.033L2110.3 563.484V278.583h-38.797v483.696h38.797v-183.02l175.66 183.02h49.033l-180.77-190.834z m-668.383 164.689l-4.55-0.286-4.265-0.286-4.265-0.426-3.977-0.707-3.839-0.707-3.839-0.853-3.692-0.853-6.819-2.271-3.266-1.422-2.985-1.422-2.985-1.561-2.841-1.706-2.7-1.849-2.56-1.849-2.414-2.129-2.271-2.129-2.129-2.414-1.987-2.414-1.849-2.56-1.706-2.56-1.561-2.841-1.561-2.985-1.28-2.985-1.134-3.125-1.134-3.411-0.853-3.411-0.707-3.411-0.707-3.692-0.853-7.673-0.286-4.123v-4.83l0.286-4.549 0.707-4.549 0.853-4.403 1.134-4.123 1.561-4.123 1.849-3.839 2.129-3.692 2.271-3.55 2.841-3.411 2.985-3.266 3.266-2.985 3.692-2.985 3.839-2.7 4.266-2.7 4.55-2.414 4.83-2.271 5.118-2.129 5.401-1.987 5.826-1.849 5.97-1.561 6.401-1.561 6.678-1.28 6.966-1.28 7.248-0.996 7.533-0.853 7.814-0.707 8.241-0.567 8.389-0.426 17.905-0.286 9.377 0.141h23.166l0.426 8.666 0.141 8.387v8.24l-0.286 7.813-0.567 7.673-0.707 7.246-0.996 7.104-1.134 6.819-1.422 6.533-1.706 6.252-1.849 5.968-1.987 5.683-2.271 5.399-2.56 5.258-2.7 4.83-2.985 4.689-3.125 4.265-3.411 4.123-3.692 3.839-3.839 3.55-4.125 3.266-4.265 2.985-4.403 2.7-4.832 2.56-4.974 2.129-5.118 1.987-5.401 1.561-5.684 1.422-5.826 1.134-5.97 0.853-6.401 0.567-6.414 0.286z m139.415-49.734V526.969l-0.286-6.676-0.426-6.393-0.707-6.111-0.996-5.968-1.134-5.825-1.422-5.546-1.561-5.399-1.849-5.114-1.987-4.972-2.271-4.83-2.56-4.549-2.7-4.403-2.985-4.123-3.125-3.839-3.411-3.839-3.55-3.55-3.839-3.266-3.977-3.125-4.265-2.985-4.55-2.7-4.691-2.414-4.974-2.414-5.118-1.987-5.401-1.987-5.547-1.706-5.826-1.422-6.112-1.28-6.254-1.134-6.538-0.853-6.678-0.707-6.966-0.426-7.106-0.286-13.217 0.286-12.506 1.134-5.97 0.853-5.684 0.996-5.684 1.28-5.401 1.28-5.26 1.561-9.95 3.692-4.691 2.129-4.404 2.271-4.403 2.56-4.123 2.56-3.977 2.985-3.692 2.985-3.692 3.266-3.411 3.266-3.266 3.692-2.985 3.692-2.841 3.977-2.7 4.123-2.56 4.403-2.271 4.403-2.271 4.689-3.692 9.947-1.561 5.258-1.422 5.399-1.28 5.683-0.996 5.683h41.217l0.567-3.55 0.707-3.411 1.706-6.533 2.271-5.968 2.841-5.683 1.561-2.56 1.849-2.56 1.849-2.414 1.987-2.271 2.129-2.271 2.129-1.987 2.414-1.987 2.56-1.849 2.7-1.849 2.7-1.561 2.985-1.561 2.985-1.422 3.125-1.28 3.411-1.134 3.411-0.996 3.55-0.996 3.692-0.853 3.839-0.707 3.977-0.707 8.24-0.853 4.404-0.286 9.097-0.286h9.097l8.526 0.567 7.955 1.134 3.692 0.853 3.692 0.996 3.411 0.996 3.411 1.28 3.125 1.422 3.125 1.561 2.841 1.706 2.841 1.849 2.56 1.987 2.56 2.129 2.271 2.271 2.271 2.414 2.129 2.56 1.849 2.7 1.849 2.841 1.561 2.985 1.561 3.266 1.28 3.266 1.28 3.55 1.134 3.55 0.853 3.692 0.853 3.977 0.567 3.977 0.567 4.265 0.426 4.403 0.141 4.403v31.403h-38.656l-18.758 0.853-8.814 0.567-8.528 0.567-8.101 0.707-7.814 0.707-7.392 0.853-7.106 0.996-6.828 0.996-6.401 1.134-6.112 1.134-5.684 1.28-5.401 1.422-5.118 1.422-4.691 1.422-4.403 1.706-3.977 1.706-3.839 1.987-7.39 3.977-3.411 2.271-3.411 2.129-3.266 2.271-3.125 2.414-2.985 2.414-5.683 5.114-2.56 2.7-2.56 2.841-2.414 2.841-2.271 2.841-2.129 2.985-2.129 3.125-3.692 6.252-1.706 3.266-1.561 3.411-1.422 3.411-1.28 3.55-1.134 3.55-1.134 3.692-1.706 7.673-0.707 3.839-0.567 3.977-0.567 4.123-0.567 8.24 0.426 5.825 0.707 5.683 0.707 5.399 1.134 5.258 1.134 5.114 1.422 4.972 1.561 4.689 1.849 4.689 1.987 4.403 2.129 4.123 2.414 4.123 2.56 3.839 2.841 3.692 2.985 3.55 3.125 3.411 3.411 3.125 3.55 3.125 3.839 2.841 3.977 2.56 4.123 2.56 4.266 2.271 4.691 2.271 4.691 1.849 4.974 1.849 5.118 1.706 5.401 1.422 5.401 1.28 5.826 1.134 5.97 0.853 6.112 0.853 6.254 0.567 6.538 0.426 4.691-0.426 4.55-0.426 8.812-1.134 4.266-0.707 4.123-0.707 4.125-0.853 3.977-0.853 3.977-0.996 3.839-0.996 3.692-1.134 10.654-3.839 3.266-1.422 6.533-3.125 3.125-1.706 2.985-1.706 2.841-1.849 2.841-1.987 2.7-1.849 2.7-2.129 2.56-2.129 2.414-2.129 2.414-2.271 2.271-2.414 2.129-2.414 2.129-2.56 1.987-2.56 3.692-5.399 2.56-5.258 2.7 49.731h41.217l-1.134-9.235-0.853-9.239-0.707-9.376-0.426-9.376-0.286-9.521 0.141-9.66 0.286-9.662 0.462-9.789z m-436.157 49.734l-6.828-0.286-6.678-0.567-6.401-0.853-6.254-1.28-5.97-1.422-5.826-1.706-5.547-1.987-5.26-2.271-5.26-2.56-4.832-2.7-4.691-3.125-4.55-3.411-4.265-3.692-4.123-3.977-3.839-4.265-3.692-4.549-3.411-4.689-3.266-5.114-2.985-5.399-2.841-5.546-2.56-5.968-2.414-6.252-2.129-6.393-1.987-6.819-1.849-7.104-1.422-7.246-1.422-7.673-1.134-7.813-0.853-8.24-0.707-8.387-0.426-8.812-0.286-8.95 0.426-8.099 0.567-7.813 0.853-7.532 0.996-7.246 1.134-6.962 1.422-6.819 1.561-6.533 1.706-6.393 1.987-5.968 2.129-5.825 2.414-5.546 2.414-5.258 2.7-5.114 2.985-4.689 3.125-4.549 3.266-4.403 3.411-3.977 3.692-3.839 3.977-3.55 3.977-3.266 4.265-2.985 4.404-2.841 4.691-2.56 4.832-2.271 4.974-1.987 5.26-1.849 5.401-1.561 5.547-1.28 5.826-0.996 5.97-0.853 12.506-0.853 5.97 0.426 5.684 0.426 5.547 0.853 5.401 0.996 5.118 1.422 4.974 1.561 4.832 1.849 4.691 1.987 4.403 2.414 4.404 2.56 4.123 2.841 3.839 3.125 3.839 3.266 3.55 3.692 3.411 3.839 3.266 4.123 2.985 4.403 2.985 4.549 2.7 4.972 2.56 5.114 2.271 5.399 2.129 5.683 2.129 5.825 1.706 6.252 1.706 6.393 1.422 6.676 1.28 6.962 1.134 7.104 0.996 7.532 0.707 7.673 0.567 7.955 0.426 8.099-0.426 8.95-0.567 8.526-0.707 8.24-0.853 8.099-1.134 7.673-1.134 7.532-1.422 7.246-1.561 6.819-1.849 6.676-1.849 6.393-2.129 6.111-2.129 5.825-2.414 5.546-2.56 5.258-2.841 4.972-2.841 4.689-3.125 4.403-3.125 4.265-3.411 3.839-3.55 3.55-3.839 3.411-3.839 2.985-4.123 2.841-4.265 2.56-4.404 2.129-4.549 1.987-4.691 1.706-4.974 1.422-4.974 1.134-5.26 0.853-5.401 0.567-5.548 0.286z m2.557-319.008l-4.832 0.141-9.38 0.853-4.55 0.567-4.403 0.567-4.404 0.707-4.403 0.996-4.266 0.853-8.24 2.271-3.977 1.28-3.839 1.422-7.673 3.125-3.55 1.706-3.692 1.849-3.411 1.987-3.55 1.987-3.266 2.129-3.266 2.271-3.266 2.414-2.985 2.414-3.125 2.56-5.825 5.546-2.7 2.841-2.7 2.985-2.7 3.125-2.56 3.266-2.414 3.266-2.414 3.411-2.271 3.55-2.56-2.56V278.56h-38.797v411.367l-0.141 3.839-0.141 4.265-0.286 4.689-0.426 5.114-0.426 5.546-0.567 5.968-0.567 6.252v36.661h41.357V712.53l2.56-2.56 2.7 3.55 2.56 3.411 5.683 6.533 5.683 5.968 3.125 2.985 2.985 2.7 3.125 2.7 9.802 7.246 3.411 2.129 3.55 2.129 7.104 3.692 3.692 1.849 3.692 1.561 3.839 1.561 3.839 1.422 3.977 1.28 7.955 2.271 4.123 0.853 4.265 0.853 8.53 1.422 8.814 0.853 4.55 0.286 9.239 0.286 7.814-0.567 7.533-0.707 7.392-1.134 7.106-1.561 6.828-1.706 6.678-2.129 6.401-2.414 6.112-2.7 5.97-3.125 5.684-3.411 5.547-3.692 5.26-3.977 4.974-4.403 4.691-4.549 4.549-5.114 4.404-5.258 3.977-5.683 3.977-5.968 3.55-6.252 3.411-6.533 3.125-6.962 2.985-7.246 2.7-7.532 2.414-7.955 2.129-8.099 1.987-8.526 1.849-8.95 1.561-9.092 1.28-9.521 0.996-9.802 0.853-10.23 0.567-10.375-0.567-10.517-0.853-10.089-0.996-9.802-1.422-9.521-1.561-9.235-1.706-8.812-1.987-8.526-2.271-8.24-2.56-7.813-2.7-7.673-2.985-7.104-3.266-6.962-3.411-6.676-3.692-6.252-3.977-5.968-4.123-5.546-4.403-5.399-4.55-4.972-4.974-4.689-5.118-4.265-5.26-4.123-5.547-3.692-5.826-3.411-6.112-2.985-6.254-2.7-6.538-2.56-6.828-1.987-6.966-1.849-7.248-1.422-7.533-1.134-7.676-0.853-7.958-0.448z m668.383 0h-4.55l-4.404 0.286-8.526 0.567-4.266 0.567-3.977 0.707-4.123 0.707-3.977 0.853-3.839 0.996-3.839 1.134-7.39 2.56-3.55 1.561-3.411 1.561-3.411 1.706-3.411 1.849-3.266 1.849-6.252 4.265-3.125 2.271-2.985 2.414-2.841 2.56-2.841 2.7-2.7 2.7-2.7 2.841-2.56 2.985-2.56 3.125-2.414 3.266-2.414 3.411-2.271 3.411-2.129 3.55-2.129 3.692v-2.56l-2.7-49.731h-41.217l1.134 6.819 0.426 3.692 0.286 3.839 0.567 8.24v4.265l0.141 4.549v305.932h41.357V568.728l0.286-6.962 0.567-6.676 1.706-12.787 1.134-5.968 1.134-5.825 1.422-5.683 1.561-5.399 1.706-5.258 1.987-4.972 1.987-4.689 2.271-4.689 2.414-4.265 2.56-4.123 2.7-3.977 2.985-3.692 2.985-3.411 3.266-3.266 3.411-3.125 3.55-2.841 3.839-2.56 3.839-2.414 4.123-2.271 4.265-1.987 4.266-1.706 4.691-1.561 4.689-1.422 4.832-1.134 5.118-0.853 5.26-0.707 5.401-0.567 5.547-0.286 5.118 0.286 4.974 0.426 4.691 0.567 4.691 0.853 4.403 0.853 4.265 1.134 4.266 1.28 3.977 1.422 3.839 1.561 3.692 1.706 3.411 1.987 3.411 2.129 3.266 2.271 2.985 2.414 2.985 2.56 2.7 2.841 2.56 2.841 2.414 3.125 2.271 3.266 2.129 3.55 1.987 3.55 1.849 3.839 1.561 3.977 1.561 4.123 1.28 4.265 1.134 4.403 1.134 4.689 0.853 4.83 0.707 4.972 0.567 5.114 0.286 5.258 0.286 5.546v216.981h41.357V553.105l-0.286-8.24-0.426-7.955-0.707-7.673-0.996-7.39-1.134-7.246-1.28-6.962-1.561-6.676-1.849-6.393-1.987-6.111-2.271-5.968-2.414-5.683-2.7-5.399-2.841-5.114-3.125-4.83-3.266-4.689-3.55-4.403-3.692-4.123-3.977-3.839-4.123-3.55-4.404-3.411-4.691-3.125-4.832-2.841-4.974-2.56-5.26-2.271-5.547-2.129-5.684-1.849-5.826-1.561-6.112-1.28-6.401-1.134-6.538-0.707-6.828-0.567-6.967-0.295z" p-id="4148" fill="#ffffff"></path></svg>