<?xml version="1.0" standalone="no"?><!DOCTYPE svg PUBLIC "-//W3C//DTD SVG 1.1//EN" "http://www.w3.org/Graphics/SVG/1.1/DTD/svg11.dtd"><svg t="1535340694128" class="icon" style="" viewBox="0 0 1024 1024" version="1.1" xmlns="http://www.w3.org/2000/svg" p-id="6243" xmlns:xlink="http://www.w3.org/1999/xlink" width="128" height="128"><defs><style type="text/css"></style></defs><path d="M587.776 745.472c0-101.888 82.944-184.832 184.832-184.832 10.752 0 20.992 1.024 30.72 2.56V202.24c0-11.776-6.144-23.552-17.92-29.696l-142.848-107.52c-6.144-6.144-23.552-6.144-29.696-6.144l-482.304 184.32C118.784 249.344 112.64 261.12 112.64 266.752v636.928c0 11.776 6.144 17.92 17.92 17.92h586.752c-74.752-23.552-129.536-93.696-129.536-176.128z m-46.592-114.688c0 11.776-6.144 23.552-17.92 23.552l-273.92 65.536c-11.776 0-17.92-6.144-17.92-11.776v-29.696c0-11.776 6.144-23.552 17.92-23.552l273.92-65.536c11.776 0 17.92 6.144 17.92 11.776v29.696z m0-131.072c0 11.776-6.144 23.552-17.92 23.552L249.344 588.8c-11.776 0-17.92-6.144-17.92-11.776v-29.696c0-11.776 6.144-23.552 17.92-23.552l273.92-65.536c11.776 0 17.92 6.144 17.92 11.776v29.696z m0-131.072c0 11.776-6.144 23.552-17.92 23.552L249.344 458.24c-11.776 0-17.92-6.144-17.92-11.776v-29.696c0-11.776 6.144-23.552 17.92-23.552L523.264 327.68c11.776 0 17.92 6.144 17.92 11.776V368.64z" fill="#bfbfbf" p-id="6244"></path><path d="M775.68 574.464c-94.72 0-171.52 76.8-171.52 171.52s76.8 171.52 171.52 171.52 171.52-76.8 171.52-171.52-76.8-171.52-171.52-171.52z m74.24 189.952h-55.296v55.296c0 6.144-6.144 18.432-18.432 18.432-6.144 0-18.432-6.144-18.432-18.432v-55.296h-55.296c-6.144 0-18.432-6.144-18.432-18.432 0-6.144 6.144-18.432 18.432-18.432H757.76v-55.296c0-6.144 0-6.144 6.144-12.288 6.144-5.632 6.144-6.144 12.288-6.144 5.632 0 18.432 6.144 18.432 18.432v55.296H849.92c6.144 0 18.432 6.144 18.432 18.432 0 12.288-6.144 18.432-18.432 18.432z" fill="#bfbfbf" p-id="6245"></path></svg>