<?xml version="1.0" standalone="no"?><!DOCTYPE svg PUBLIC "-//W3C//DTD SVG 1.1//EN" "http://www.w3.org/Graphics/SVG/1.1/DTD/svg11.dtd"><svg t="1535165902949" class="icon" style="" viewBox="0 0 1024 1024" version="1.1" xmlns="http://www.w3.org/2000/svg" p-id="1369" xmlns:xlink="http://www.w3.org/1999/xlink" width="128" height="128"><defs><style type="text/css"></style></defs><path d="M512 185.6c-217.6 0-406.4 136-480 328 73.6 192 262.4 328 480 328 217.6 0 406.4-136 480-328-73.6-192-262.4-328-480-328m0 545.6c-121.6 0-217.6-96-217.6-217.6s96-217.6 217.6-217.6 217.6 96 217.6 217.6-96 217.6-217.6 217.6m0-348.8c-73.6 0-131.2 56-131.2 131.2 0 73.6 56 131.2 131.2 131.2 73.6 0 131.2-56 131.2-131.2 0-75.2-57.6-131.2-131.2-131.2" fill="#bfbfbf" p-id="1370"></path></svg>