<?xml version="1.0" standalone="no"?><!DOCTYPE svg PUBLIC "-//W3C//DTD SVG 1.1//EN" "http://www.w3.org/Graphics/SVG/1.1/DTD/svg11.dtd"><svg t="1535181845835" class="icon" style="" viewBox="0 0 1024 1024" version="1.1" xmlns="http://www.w3.org/2000/svg" p-id="5017" xmlns:xlink="http://www.w3.org/1999/xlink" width="128" height="128"><defs><style type="text/css"></style></defs><path d="M741.994512 61.366585 81.661418 61.366585c-9.61688 0-17.417591 7.795715-17.417591 17.412794L64.243827 937.501366c0 9.621477 7.800711 17.417191 17.417591 17.417191l858.757163 0c9.621477 0 17.417191-7.795715 17.417191-17.417191L957.835771 273.825538 741.994512 61.366585 741.994512 61.366585zM176.014646 196.204365c0-9.61688 7.795715-17.412594 17.412594-17.412594l440.343847 0c9.621477 0 17.422188 7.795715 17.422188 17.412594l0 103.755454c0 9.621876-7.800711 17.417591-17.422188 17.417591L193.42724 317.37741c-9.61688 0-17.412594-7.795715-17.412594-17.417591L176.014646 196.204365zM846.450291 826.795625c0 9.617479-7.800711 17.41819-17.417991 17.41819l-635.60506 0c-9.61688 0-17.412594-7.800711-17.412594-17.41819L176.014646 515.280632c0-9.617479 7.795715-17.413194 17.412594-17.413194l635.60506 0c9.617479 0 17.417991 7.795715 17.417991 17.413194L846.450291 826.795625zM788.788585 548.964794c0-7.665803-6.229776-13.890582-13.940548-13.890582l-83.505183 0c-7.715769 0-13.940548 6.22478-13.940548 13.890582l0 83.190397c0 7.680792 6.22478 13.889583 13.940548 13.889583l83.505183 0c7.710772 0 13.940548-6.20879 13.940548-13.889583L788.788585 548.964794z" p-id="5018" fill="#bfbfbf"></path></svg>