<?xml version="1.0" standalone="no"?><!DOCTYPE svg PUBLIC "-//W3C//DTD SVG 1.1//EN" "http://www.w3.org/Graphics/SVG/1.1/DTD/svg11.dtd"><svg t="1535888540481" class="icon" style="" viewBox="0 0 1024 1024" version="1.1" xmlns="http://www.w3.org/2000/svg" p-id="1385" xmlns:xlink="http://www.w3.org/1999/xlink" width="128" height="128"><defs><style type="text/css"></style></defs><path d="M985.382306 316.084162c-25.649962-61.977006-63.694098-118.789432-111.031817-166.13329-47.337719-47.343859-104.144005-85.390041-166.114871-111.043073-61.970866-25.649962-128.932351-38.907798-195.89486-38.907798S378.243826 13.256813 316.443851 38.907798C254.476055 64.560831 197.669769 102.436122 150.32898 149.950872c-47.337719 47.343859-85.377761 104.155261-111.028747 166.13329-25.821876 61.977006-39.248556 128.947701-39.248556 195.915326 0 66.970695 13.254766 134.113304 38.904728 195.918396 25.647916 61.973936 63.691028 118.789432 111.028747 166.130221 47.340789 47.346929 104.144005 85.393111 166.114871 111.043073 61.970866 25.649962 128.932351 38.907798 195.89486 38.907798 66.964555 0 134.097955-13.257836 195.89793-38.907798 61.967796-25.649962 118.774082-63.697168 166.114871-111.043073 47.337719-47.340789 85.380831-104.155261 111.028747-166.130221 25.649962-61.980076 38.904728-128.947701 38.904728-195.918396C1024.283965 445.031863 1011.029199 378.061168 985.382306 316.084162zM749.353738 724.153515c-22.289455 55.698055-160.24524 58.652314-236.873812 58.652314-42.389055 0-93.961177-0.705052-139.702552-8.71849-53.31889-9.567827-117.856185-30.101304-98.770673-98.18023 8.595695-30.662071 47.054266-53.168465 82.017254-71.876381 10.197155-5.345704 31.613737-17.160691 51.569052-24.897839 16.753418-6.466214 40.353717-12.516969 42.539479-33.757545 1.894123-18.003887-10.05287-27.565574-21.268205-42.477058-25.786061-34.179143-49.969639-80.73711-45.600161-143.750715 4.372548-61.890026 44.141962-109.854002 110.862973-117.307698 91.777461-10.269809 155.730453 48.665958 147.280067 149.518017-2.475355 28.132481-14.423371 61.606572-28.845719 86.504411-13.69069 23.487736-44.57584 46.274513-36.417093 76.234603 5.099089 18.988299 48.219801 30.101304 63.805638 36.712826 39.772484 16.880307 95.421421 41.916292 109.404775 82.14312C752.850344 683.219588 755.618362 708.399857 749.353738 724.153515z" p-id="1386" fill="#bfbfbf"></path></svg>