<?xml version="1.0" standalone="no"?><!DOCTYPE svg PUBLIC "-//W3C//DTD SVG 1.1//EN" "http://www.w3.org/Graphics/SVG/1.1/DTD/svg11.dtd"><svg t="1535547814382" class="icon" style="" viewBox="0 0 1024 1024" version="1.1" xmlns="http://www.w3.org/2000/svg" p-id="13757" xmlns:xlink="http://www.w3.org/1999/xlink" width="128" height="128"><defs><style type="text/css"></style></defs><path d="M512.806 64.773C266.3 64.773 65.758 265.318 65.758 511.82c0 246.5 200.542 447.045 447.048 447.045 246.5 0 447.045-200.545 447.045-447.045 0-246.502-200.545-447.047-447.045-447.047z m401.5 447.048c0 40.187-5.909 78.993-16.897 115.601-21.183 9.288-44.108 16.83-68.868 22.542v-0.003c-56.847-28.42-109.634-66.992-154.301-111.651 22.335-34.511 40.608-71.051 56.847-107.591h6.094c34.514 0 60.909-26.392 60.909-60.904 0-24.361-14.213-44.659-34.514-54.81 7.768-34.956 11.779-69.929 12.117-106.661 84.909 73.618 138.613 182.275 138.613 303.477zM222.772 789.455c-3.351-3.5-6.64-7.06-9.865-10.68-1.862-20.622-3.599-41.369-3.599-63.851 0-38.571 4.06-77.142 12.179-113.682 73.094 42.631 152.273 75.111 235.514 93.381 0 2.028 0 2.028 2.031 4.06-70.157 46.099-150.219 76.336-236.26 90.772z m234.23-135.434c-81.21-20.298-158.361-50.75-227.392-93.381 18.276-69.02 48.727-133.983 87.304-190.821 4.06 0 8.119 2.028 14.21 2.028 34.517 0 60.909-26.389 60.909-60.901 0-8.119-2.031-16.242-4.06-24.361 24.364-24.361 48.724-44.662 75.119-64.96 22.332 121.801 79.182 231.421 160.392 320.745-22.332 30.449-46.696 56.841-73.088 83.23-10.153-8.119-22.335-12.179-36.548-12.179-26.392 0-48.724 16.242-56.846 40.6z m237.542-241.572c-14.21 32.477-28.423 64.96-48.724 95.409-75.122-85.258-127.909-192.852-146.182-312.622 44.826-27.283 93.414-48.873 143.927-63.134a400.041 400.041 0 0 1 93.616 46.717v8.295c0 42.631-4.062 83.23-12.182 123.833-28.423 6.091-48.727 30.449-48.727 58.869 0 16.241 6.091 32.483 18.272 42.633z m-42.633 160.373v-0.003c36.543 34.511 75.117 64.963 117.753 89.324-42.636 8.119-87.301 12.179-134 12.179-20.301 0-40.602-2.028-60.906-2.028 0-4.06 0-8.119-2.031-12.179 28.425-26.392 54.817-56.841 79.184-87.293z m-77.922-457.869c-26.138 11.212-52.273 22.555-78.41 35.621-1.896-13.266-2.015-26.53-2.022-39.793 6.379-0.301 12.796-0.46 19.25-0.46 20.801 0 41.233 1.582 61.182 4.632z m-118.967-0.498c0.142 21.358 2.054 41.012 4.011 62.511-34.517 24.358-67 50.75-97.455 79.171-10.151-6.091-20.301-8.119-30.455-8.119-34.514 0-60.909 26.389-60.909 60.901 0 14.21 6.091 26.389 14.213 38.571-40.605 56.838-71.06 119.77-89.332 188.79-29.809-19.868-55.726-41.698-81.56-65.455a406.617 406.617 0 0 0-2.003 52.326c23.123 19.253 46.336 38.322 71.381 53.729-8.122 44.662-14.213 91.352-14.213 138.043v3.874c-36.433-60.441-57.397-131.259-57.397-206.975 0.001-202.121 149.353-369.351 343.719-397.367z m57.784 798.865c-96.931 0-185.839-34.349-255.216-91.538 83.834-16.465 159.789-48.652 227.835-94.679 8.122 6.091 18.273 8.119 28.423 8.119 20.301 0 36.548-10.151 48.727-24.361 24.364 2.031 48.727 4.06 73.088 4.06 64.972 0 127.909-8.119 188.818-22.33 12.651 5.42 25.299 12.413 37.949 16.751C793.481 831.127 662.745 913.32 512.806 913.32z" p-id="13758" fill="#8a8a8a"></path></svg>