<?xml version="1.0" standalone="no"?><!DOCTYPE svg PUBLIC "-//W3C//DTD SVG 1.1//EN" "http://www.w3.org/Graphics/SVG/1.1/DTD/svg11.dtd"><svg t="1535552417135" class="icon" style="" viewBox="0 0 1024 1024" version="1.1" xmlns="http://www.w3.org/2000/svg" p-id="15400" xmlns:xlink="http://www.w3.org/1999/xlink" width="128" height="128"><defs><style type="text/css"></style></defs><path d="M874.1376 437.0944c-33.1776 0-63.5904 11.2128-88.4736 29.5424l-42.496-39.1168a148.1728 148.1728 0 0 0 31.0784-90.368c0-82.6368-67.2256-149.8624-149.8624-149.8624S474.5216 254.5152 474.5216 337.152c0 57.0368 32.3584 106.0864 79.36 131.4304l-62.8224 84.6336a147.712 147.712 0 0 0-66.5088-16.2304 147.968 147.968 0 0 0-73.728 20.224L284.7744 476.16a147.968 147.968 0 0 0 14.9504-64.0512c0-82.6368-67.2256-149.8624-149.8624-149.8624S0 329.472 0 412.1088s67.2256 149.8624 149.8624 149.8624c40.96 0 78.08-16.5888 105.1648-43.3152l57.1904 70.144a148.48 148.48 0 0 0-37.4272 98.048c0 82.6368 67.2256 149.8624 149.8624 149.8624s149.8624-67.2256 149.8624-149.8624c0-40.6528-16.384-77.4656-42.8032-104.4992l72.2432-97.3824c6.7584 0.9216 13.4656 2.048 20.48 2.048 30.5152 0 58.8288-9.2672 82.5344-24.9856l43.776 40.192a148.9408 148.9408 0 0 0-26.4192 84.6848 150.016 150.016 0 0 0 149.8624 149.8624c82.6368 0 149.8624-67.2256 149.8624-149.8624s-67.2768-149.8112-149.9136-149.8112zM149.8624 512C94.7712 512 49.9712 467.2 49.9712 412.1088s44.8-99.8912 99.8912-99.8912 99.8912 44.8 99.8912 99.8912S204.9536 512 149.8624 512z m274.7392 274.7392c-55.0912 0-99.8912-44.8-99.8912-99.8912s44.8-99.8912 99.8912-99.8912 99.8912 44.8 99.8912 99.8912-44.8 99.8912-99.8912 99.8912z m99.8912-449.5872c0-55.0912 44.8-99.8912 99.8912-99.8912s99.8912 44.8 99.8912 99.8912-44.8 99.8912-99.8912 99.8912-99.8912-44.8-99.8912-99.8912z m349.6448 349.696c-55.0912 0-99.8912-44.8-99.8912-99.8912s44.8-99.8912 99.8912-99.8912 99.8912 44.8 99.8912 99.8912-44.8 99.8912-99.8912 99.8912z" p-id="15401" fill="#1DA5EF"></path></svg>